<svg width="8" height="17" viewBox="0 0 8 17" fill="none" xmlns="http://www.w3.org/2000/svg">
<path d="M7.08799 8.48011H4.90199V16.2381H1.59099V8.48011H0.0159912V5.75411H1.59099V3.98911C1.56174 3.54744 1.62897 3.1047 1.78802 2.69163C1.94706 2.27856 2.19411 1.90505 2.51201 1.59705C2.82991 1.28905 3.21104 1.05393 3.62893 0.90802C4.04683 0.762112 4.49147 0.70891 4.93199 0.75211L7.38499 0.76211V3.40911H5.60499C5.50775 3.40311 5.41039 3.41859 5.3198 3.45443C5.22922 3.49028 5.14763 3.54562 5.08083 3.61652C5.01402 3.68743 4.96364 3.77217 4.93325 3.86473C4.90286 3.95729 4.89321 4.0554 4.90499 4.15211V5.75211H7.37999L7.08799 8.48011Z" fill="white"/>
</svg>
