<svg width="15" height="13" viewBox="0 0 15 13" fill="none" xmlns="http://www.w3.org/2000/svg">
<path d="M14.9969 2.07207C14.4727 2.30444 13.9165 2.45681 13.3469 2.52407C13.9468 2.16523 14.3957 1.60046 14.6099 0.935069C14.0463 1.27074 13.4294 1.50749 12.7859 1.63507C12.3523 1.17799 11.7806 0.876009 11.1586 0.775554C10.5366 0.675098 9.89887 0.781733 9.34341 1.07906C8.78795 1.37639 8.34553 1.84795 8.08419 2.42123C7.82286 2.99451 7.75707 3.63776 7.89695 4.25207C6.75499 4.19509 5.63778 3.89855 4.61788 3.38171C3.59797 2.86486 2.69819 2.13928 1.97695 1.25207C1.60953 1.88446 1.49695 2.63311 1.66211 3.3456C1.82727 4.05808 2.25777 4.68083 2.86595 5.08707C2.41006 5.07275 1.96426 4.94929 1.56595 4.72707C1.56595 4.73907 1.56595 4.75107 1.56595 4.76307C1.56597 5.42564 1.79492 6.06785 2.21405 6.581C2.63317 7.09416 3.21673 7.44674 3.86595 7.57907C3.44208 7.69457 2.99743 7.71167 2.56595 7.62907C2.74934 8.19982 3.10656 8.69897 3.58763 9.05668C4.0687 9.41439 4.64956 9.61277 5.24895 9.62407C4.04364 10.5651 2.51547 10.9921 0.996948 10.8121C2.23148 11.6032 3.65622 12.0474 5.12161 12.0981C6.587 12.1488 8.03902 11.8041 9.32527 11.1001C10.6115 10.3962 11.6846 9.359 12.4318 8.0974C13.179 6.83581 13.5728 5.39634 13.5719 3.93007C13.5719 3.80607 13.5719 3.68207 13.5639 3.55907C14.1264 3.15272 14.6117 2.64914 14.9969 2.07207V2.07207Z" fill="#F1F2F2"/>
</svg>
